# Vectary OBJ Export units=mm
mtllib Bus-stop.mtl
o 000_Merged_Objects
g Merged_Objects
usemtl pilar_b7c663a5-955e-4e23-ba72-c688b7d7b333
v -0.741 0.000 -0.363
v -0.749 0.000 -0.428
v -0.749 0.871 -0.428
v -0.741 0.871 -0.363
v -0.771 0.000 -0.467
v -0.771 0.871 -0.467
v -0.797 0.000 -0.467
v -0.797 0.871 -0.467
v -0.819 0.000 -0.428
v -0.819 0.871 -0.428
v -0.828 0.000 -0.363
v -0.828 0.871 -0.363
v -0.819 0.000 -0.298
v -0.819 0.871 -0.298
v -0.797 0.000 -0.258
v -0.797 0.871 -0.258
v -0.771 0.000 -0.258
v -0.771 0.871 -0.258
v -0.749 0.000 -0.298
v -0.749 0.871 -0.298
v -0.784 0.000 -0.363
v -0.784 0.871 -0.363
v 0.542 -0.000 0.505
v -0.139 -0.000 0.475
v 0.542 -0.000 0.475
v -0.139 -0.000 0.505
v -0.819 -0.000 0.475
v -0.819 -0.000 0.505
v -0.139 -0.000 0.445
v 0.542 -0.000 0.445
v -0.819 -0.000 0.445
v -0.819 0.428 0.475
v -0.819 0.428 0.445
v -0.819 0.428 0.505
v -0.819 0.856 0.475
v -0.819 0.856 0.445
v -0.819 0.856 0.505
v -0.139 0.428 0.505
v 0.542 0.428 0.505
v -0.139 0.856 0.505
v 0.542 0.856 0.505
v -0.139 0.428 0.445
v 0.542 0.428 0.445
v -0.139 0.856 0.445
v 0.542 0.856 0.445
v 0.542 0.428 0.475
v 0.542 0.856 0.475
v -0.139 0.856 0.475
v 0.550 0.000 -0.363
v 0.542 0.000 -0.428
v 0.542 0.852 -0.428
v 0.550 0.852 -0.363
v 0.520 0.000 -0.467
v 0.520 0.852 -0.467
v 0.493 0.000 -0.467
v 0.493 0.852 -0.467
v 0.471 0.000 -0.428
v 0.471 0.852 -0.428
v 0.463 0.000 -0.363
v 0.463 0.852 -0.363
v 0.471 0.000 -0.298
v 0.471 0.852 -0.298
v 0.493 0.000 -0.258
v 0.493 0.852 -0.258
v 0.520 0.000 -0.258
v 0.520 0.852 -0.258
v 0.542 0.000 -0.298
v 0.542 0.852 -0.298
v 0.506 0.000 -0.363
v 0.506 0.852 -0.363
v 0.558 0.848 0.502
v -0.135 0.848 -0.006
v 0.558 0.848 -0.006
v -0.135 0.848 0.502
v -0.827 0.848 -0.006
v -0.827 0.848 0.502
v -0.135 0.848 -0.513
v 0.558 0.848 -0.513
v -0.827 0.848 -0.513
v -0.827 0.861 -0.006
v -0.827 0.861 -0.513
v -0.827 0.861 0.502
v -0.827 0.874 -0.006
v -0.827 0.874 -0.513
v -0.827 0.874 0.502
v -0.135 0.861 0.502
v 0.558 0.861 0.502
v -0.135 0.874 0.502
v 0.558 0.874 0.502
v -0.135 0.861 -0.513
v 0.558 0.861 -0.513
v -0.135 0.874 -0.513
v 0.558 0.874 -0.513
v 0.558 0.861 -0.006
v 0.558 0.874 -0.006
v -0.135 0.874 -0.006
v 0.167 -0.000 0.324
v 0.109 -0.000 0.308
v 0.109 0.126 0.308
v 0.167 0.126 0.324
v -0.042 -0.000 0.298
v -0.042 0.126 0.298
v -0.229 -0.000 0.298
v -0.229 0.126 0.298
v -0.380 -0.000 0.308
v -0.380 0.126 0.308
v -0.437 -0.000 0.324
v -0.437 0.126 0.324
v -0.380 -0.000 0.340
v -0.380 0.126 0.340
v -0.229 -0.000 0.350
v -0.229 0.126 0.350
v -0.042 -0.000 0.350
v -0.042 0.126 0.350
v 0.109 -0.000 0.340
v 0.109 0.126 0.340
v -0.135 -0.000 0.324
v -0.135 0.126 0.324
v 0.248 0.126 0.363
v -0.129 0.126 0.363
v 0.248 0.126 0.279
v -0.129 0.126 0.279
v -0.506 0.126 0.363
v -0.506 0.126 0.279
v 0.248 0.126 0.447
v -0.129 0.126 0.447
v -0.506 0.126 0.447
v -0.506 0.138 0.447
v -0.506 0.138 0.363
v -0.506 0.138 0.279
v -0.506 0.151 0.447
v -0.506 0.151 0.363
v -0.506 0.151 0.279
v -0.129 0.138 0.279
v 0.248 0.138 0.279
v -0.129 0.151 0.279
v 0.248 0.151 0.279
v 0.248 0.138 0.447
v -0.129 0.138 0.447
v 0.248 0.151 0.447
v -0.129 0.151 0.447
v 0.248 0.138 0.363
v 0.248 0.151 0.363
v -0.129 0.151 0.363
vn 1.00000 0.00000 0.00000
vn 0.96109 0.00000 -0.27623
vn 0.96109 0.00000 -0.27623
vn 1.00000 0.00000 0.00000
vn 0.96109 0.00000 -0.27623
vn 0.63471 0.00000 -0.77275
vn 0.63471 0.00000 -0.77275
vn 0.96109 0.00000 -0.27623
vn 0.63471 0.00000 -0.77275
vn -0.63471 0.00000 -0.77275
vn -0.63471 0.00000 -0.77275
vn 0.63471 0.00000 -0.77275
vn -0.63471 0.00000 -0.77275
vn -0.96109 0.00000 -0.27623
vn -0.96109 0.00000 -0.27623
vn -0.63471 0.00000 -0.77275
vn -0.96109 0.00000 -0.27623
vn -1.00000 0.00000 -0.00000
vn -1.00000 0.00000 -0.00000
vn -0.96109 0.00000 -0.27623
vn -1.00000 0.00000 -0.00000
vn -0.96109 -0.00000 0.27623
vn -0.96109 -0.00000 0.27623
vn -1.00000 0.00000 -0.00000
vn -0.96109 -0.00000 0.27623
vn -0.63471 -0.00000 0.77275
vn -0.63471 -0.00000 0.77275
vn -0.96109 -0.00000 0.27623
vn -0.63471 -0.00000 0.77275
vn 0.63471 -0.00000 0.77275
vn 0.63471 -0.00000 0.77275
vn -0.63471 -0.00000 0.77275
vn 0.63471 -0.00000 0.77275
vn 0.96109 -0.00000 0.27623
vn 0.96109 -0.00000 0.27623
vn 0.63471 -0.00000 0.77275
vn 0.96109 -0.00000 0.27623
vn 1.00000 0.00000 0.00000
vn 1.00000 0.00000 0.00000
vn 0.96109 -0.00000 0.27623
vn 0.00000 -1.00000 -0.00000
vn 0.00000 -1.00000 -0.00000
vn 0.00000 -1.00000 -0.00000
vn 0.00000 -1.00000 -0.00000
vn 0.00000 -1.00000 -0.00000
vn 0.00000 -1.00000 -0.00000
vn 0.00000 -1.00000 -0.00000
vn 0.00000 -1.00000 -0.00000
vn 0.00000 -1.00000 -0.00000
vn 0.00000 -1.00000 -0.00000
vn 0.00000 -1.00000 -0.00000
vn 0.00000 -1.00000 -0.00000
vn 0.00000 -1.00000 -0.00000
vn 0.00000 -1.00000 -0.00000
vn 0.00000 -1.00000 -0.00000
vn 0.00000 -1.00000 -0.00000
vn 0.00000 -1.00000 -0.00000
vn 0.00000 -1.00000 -0.00000
vn 0.00000 -1.00000 -0.00000
vn 0.00000 -1.00000 -0.00000
vn 0.00000 -1.00000 -0.00000
vn 0.00000 -1.00000 -0.00000
vn 0.00000 -1.00000 -0.00000
vn 0.00000 -1.00000 -0.00000
vn 0.00000 -1.00000 -0.00000
vn 0.00000 -1.00000 -0.00000
vn 0.00000 -1.00000 -0.00000
vn 0.00000 -1.00000 -0.00000
vn 0.00000 -1.00000 -0.00000
vn 0.00000 -1.00000 -0.00000
vn 0.00000 1.00000 0.00000
vn 0.00000 1.00000 0.00000
vn 0.00000 1.00000 0.00000
vn 0.00000 1.00000 0.00000
vn 0.00000 1.00000 0.00000
vn 0.00000 1.00000 0.00000
vn 0.00000 1.00000 0.00000
vn 0.00000 1.00000 0.00000
vn 0.00000 1.00000 0.00000
vn 0.00000 1.00000 0.00000
vn 0.00000 1.00000 0.00000
vn 0.00000 1.00000 0.00000
vn 0.00000 1.00000 0.00000
vn 0.00000 1.00000 0.00000
vn 0.00000 1.00000 0.00000
vn 0.00000 1.00000 0.00000
vn 0.00000 1.00000 0.00000
vn 0.00000 1.00000 0.00000
vn 0.00000 1.00000 0.00000
vn 0.00000 1.00000 0.00000
vn 0.00000 1.00000 0.00000
vn 0.00000 1.00000 0.00000
vn 0.00000 1.00000 0.00000
vn 0.00000 1.00000 0.00000
vn 0.00000 1.00000 0.00000
vn 0.00000 1.00000 0.00000
vn 0.00000 1.00000 0.00000
vn 0.00000 1.00000 0.00000
vn 0.00000 1.00000 0.00000
vn 0.00000 1.00000 0.00000
vn 0.00000 -1.00000 -0.00000
vn 0.00000 -1.00000 -0.00000
vn 0.00000 -1.00000 -0.00000
vn 0.00000 -1.00000 -0.00000
vn 0.00000 -1.00000 -0.00000
vn 0.00000 -1.00000 -0.00000
vn 0.00000 -1.00000 -0.00000
vn 0.00000 -1.00000 -0.00000
vn 0.00000 -1.00000 -0.00000
vn 0.00000 -1.00000 -0.00000
vn 0.00000 -1.00000 -0.00000
vn 0.00000 -1.00000 -0.00000
vn 0.00000 -1.00000 -0.00000
vn 0.00000 -1.00000 -0.00000
vn 0.00000 -1.00000 -0.00000
vn 0.00000 -1.00000 -0.00000
vn -1.00000 0.00000 0.00000
vn -1.00000 0.00000 0.00000
vn -1.00000 0.00000 0.00000
vn -1.00000 0.00000 0.00000
vn -1.00000 0.00000 0.00000
vn -1.00000 0.00000 0.00000
vn -1.00000 0.00000 0.00000
vn -1.00000 0.00000 0.00000
vn -1.00000 0.00000 0.00000
vn -1.00000 0.00000 0.00000
vn -1.00000 0.00000 0.00000
vn -1.00000 0.00000 0.00000
vn -1.00000 0.00000 0.00000
vn -1.00000 0.00000 0.00000
vn -1.00000 0.00000 0.00000
vn -1.00000 0.00000 0.00000
vn 0.00000 -0.00000 1.00000
vn 0.00000 -0.00000 1.00000
vn 0.00000 -0.00000 1.00000
vn 0.00000 -0.00000 1.00000
vn 0.00000 -0.00000 1.00000
vn 0.00000 -0.00000 1.00000
vn 0.00000 -0.00000 1.00000
vn 0.00000 -0.00000 1.00000
vn 0.00000 -0.00000 1.00000
vn 0.00000 -0.00000 1.00000
vn 0.00000 -0.00000 1.00000
vn 0.00000 -0.00000 1.00000
vn 0.00000 -0.00000 1.00000
vn 0.00000 -0.00000 1.00000
vn 0.00000 -0.00000 1.00000
vn 0.00000 -0.00000 1.00000
vn 0.00000 0.00000 -1.00000
vn 0.00000 0.00000 -1.00000
vn 0.00000 0.00000 -1.00000
vn 0.00000 0.00000 -1.00000
vn 0.00000 0.00000 -1.00000
vn 0.00000 0.00000 -1.00000
vn 0.00000 0.00000 -1.00000
vn 0.00000 0.00000 -1.00000
vn 0.00000 0.00000 -1.00000
vn 0.00000 0.00000 -1.00000
vn 0.00000 0.00000 -1.00000
vn 0.00000 0.00000 -1.00000
vn 0.00000 0.00000 -1.00000
vn 0.00000 0.00000 -1.00000
vn 0.00000 0.00000 -1.00000
vn 0.00000 0.00000 -1.00000
vn 1.00000 0.00000 0.00000
vn 1.00000 0.00000 0.00000
vn 1.00000 0.00000 0.00000
vn 1.00000 0.00000 0.00000
vn 1.00000 0.00000 0.00000
vn 1.00000 0.00000 0.00000
vn 1.00000 0.00000 0.00000
vn 1.00000 0.00000 0.00000
vn 1.00000 0.00000 0.00000
vn 1.00000 0.00000 0.00000
vn 1.00000 0.00000 0.00000
vn 1.00000 0.00000 0.00000
vn 1.00000 0.00000 0.00000
vn 1.00000 0.00000 0.00000
vn 1.00000 0.00000 0.00000
vn 1.00000 0.00000 0.00000
vn 0.00000 1.00000 0.00000
vn 0.00000 1.00000 0.00000
vn 0.00000 1.00000 0.00000
vn 0.00000 1.00000 0.00000
vn 0.00000 1.00000 0.00000
vn 0.00000 1.00000 0.00000
vn 0.00000 1.00000 0.00000
vn 0.00000 1.00000 0.00000
vn 0.00000 1.00000 0.00000
vn 0.00000 1.00000 0.00000
vn 0.00000 1.00000 0.00000
vn 0.00000 1.00000 0.00000
vn 0.00000 1.00000 0.00000
vn 0.00000 1.00000 0.00000
vn 0.00000 1.00000 0.00000
vn 0.00000 1.00000 0.00000
vn 1.00000 0.00000 0.00000
vn 0.96109 0.00000 -0.27623
vn 0.96109 0.00000 -0.27623
vn 1.00000 0.00000 0.00000
vn 0.96109 0.00000 -0.27623
vn 0.63471 0.00000 -0.77275
vn 0.63471 0.00000 -0.77275
vn 0.96109 0.00000 -0.27623
vn 0.63471 0.00000 -0.77275
vn -0.63471 0.00000 -0.77275
vn -0.63471 0.00000 -0.77275
vn 0.63471 0.00000 -0.77275
vn -0.63471 0.00000 -0.77275
vn -0.96109 0.00000 -0.27623
vn -0.96109 0.00000 -0.27623
vn -0.63471 0.00000 -0.77275
vn -0.96109 0.00000 -0.27623
vn -1.00000 0.00000 -0.00000
vn -1.00000 0.00000 -0.00000
vn -0.96109 0.00000 -0.27623
vn -1.00000 0.00000 -0.00000
vn -0.96109 -0.00000 0.27623
vn -0.96109 -0.00000 0.27623
vn -1.00000 0.00000 -0.00000
vn -0.96109 -0.00000 0.27623
vn -0.63471 -0.00000 0.77275
vn -0.63471 -0.00000 0.77275
vn -0.96109 -0.00000 0.27623
vn -0.63471 -0.00000 0.77275
vn 0.63471 -0.00000 0.77275
vn 0.63471 -0.00000 0.77275
vn -0.63471 -0.00000 0.77275
vn 0.63471 -0.00000 0.77275
vn 0.96109 -0.00000 0.27623
vn 0.96109 -0.00000 0.27623
vn 0.63471 -0.00000 0.77275
vn 0.96109 -0.00000 0.27623
vn 1.00000 0.00000 0.00000
vn 1.00000 0.00000 0.00000
vn 0.96109 -0.00000 0.27623
vn 0.00000 -1.00000 -0.00000
vn 0.00000 -1.00000 -0.00000
vn 0.00000 -1.00000 -0.00000
vn 0.00000 -1.00000 -0.00000
vn 0.00000 -1.00000 -0.00000
vn 0.00000 -1.00000 -0.00000
vn 0.00000 -1.00000 -0.00000
vn 0.00000 -1.00000 -0.00000
vn 0.00000 -1.00000 -0.00000
vn 0.00000 -1.00000 -0.00000
vn 0.00000 -1.00000 -0.00000
vn 0.00000 -1.00000 -0.00000
vn 0.00000 -1.00000 -0.00000
vn 0.00000 -1.00000 -0.00000
vn 0.00000 -1.00000 -0.00000
vn 0.00000 -1.00000 -0.00000
vn 0.00000 -1.00000 -0.00000
vn 0.00000 -1.00000 -0.00000
vn 0.00000 -1.00000 -0.00000
vn 0.00000 -1.00000 -0.00000
vn 0.00000 -1.00000 -0.00000
vn 0.00000 -1.00000 -0.00000
vn 0.00000 -1.00000 -0.00000
vn 0.00000 -1.00000 -0.00000
vn 0.00000 -1.00000 -0.00000
vn 0.00000 -1.00000 -0.00000
vn 0.00000 -1.00000 -0.00000
vn 0.00000 -1.00000 -0.00000
vn 0.00000 -1.00000 -0.00000
vn 0.00000 -1.00000 -0.00000
vn 0.00000 1.00000 0.00000
vn 0.00000 1.00000 0.00000
vn 0.00000 1.00000 0.00000
vn 0.00000 1.00000 0.00000
vn 0.00000 1.00000 0.00000
vn 0.00000 1.00000 0.00000
vn 0.00000 1.00000 0.00000
vn 0.00000 1.00000 0.00000
vn 0.00000 1.00000 0.00000
vn 0.00000 1.00000 0.00000
vn 0.00000 1.00000 0.00000
vn 0.00000 1.00000 0.00000
vn 0.00000 1.00000 0.00000
vn 0.00000 1.00000 0.00000
vn 0.00000 1.00000 0.00000
vn 0.00000 1.00000 0.00000
vn 0.00000 1.00000 0.00000
vn 0.00000 1.00000 0.00000
vn 0.00000 1.00000 0.00000
vn 0.00000 1.00000 0.00000
vn 0.00000 1.00000 0.00000
vn 0.00000 1.00000 0.00000
vn 0.00000 1.00000 0.00000
vn 0.00000 1.00000 0.00000
vn 0.00000 1.00000 0.00000
vn 0.00000 1.00000 0.00000
vn 0.00000 1.00000 0.00000
vn 0.00000 1.00000 0.00000
vn 0.00000 1.00000 0.00000
vn 0.00000 1.00000 0.00000
vn 0.00000 -1.00000 -0.00000
vn 0.00000 -1.00000 -0.00000
vn 0.00000 -1.00000 -0.00000
vn 0.00000 -1.00000 -0.00000
vn 0.00000 -1.00000 -0.00000
vn 0.00000 -1.00000 -0.00000
vn 0.00000 -1.00000 -0.00000
vn 0.00000 -1.00000 -0.00000
vn 0.00000 -1.00000 -0.00000
vn 0.00000 -1.00000 -0.00000
vn 0.00000 -1.00000 -0.00000
vn 0.00000 -1.00000 -0.00000
vn 0.00000 -1.00000 -0.00000
vn 0.00000 -1.00000 -0.00000
vn 0.00000 -1.00000 -0.00000
vn 0.00000 -1.00000 -0.00000
vn -1.00000 0.00000 0.00000
vn -1.00000 0.00000 0.00000
vn -1.00000 0.00000 0.00000
vn -1.00000 0.00000 0.00000
vn -1.00000 0.00000 0.00000
vn -1.00000 0.00000 0.00000
vn -1.00000 0.00000 0.00000
vn -1.00000 0.00000 0.00000
vn -1.00000 0.00000 0.00000
vn -1.00000 0.00000 0.00000
vn -1.00000 0.00000 0.00000
vn -1.00000 0.00000 0.00000
vn -1.00000 0.00000 0.00000
vn -1.00000 0.00000 0.00000
vn -1.00000 0.00000 0.00000
vn -1.00000 0.00000 0.00000
vn 0.00000 -0.00000 1.00000
vn 0.00000 -0.00000 1.00000
vn 0.00000 -0.00000 1.00000
vn 0.00000 -0.00000 1.00000
vn 0.00000 -0.00000 1.00000
vn 0.00000 -0.00000 1.00000
vn 0.00000 -0.00000 1.00000
vn 0.00000 -0.00000 1.00000
vn 0.00000 -0.00000 1.00000
vn 0.00000 -0.00000 1.00000
vn 0.00000 -0.00000 1.00000
vn 0.00000 -0.00000 1.00000
vn 0.00000 -0.00000 1.00000
vn 0.00000 -0.00000 1.00000
vn 0.00000 -0.00000 1.00000
vn 0.00000 -0.00000 1.00000
vn 0.00000 0.00000 -1.00000
vn 0.00000 0.00000 -1.00000
vn 0.00000 0.00000 -1.00000
vn 0.00000 0.00000 -1.00000
vn 0.00000 0.00000 -1.00000
vn 0.00000 0.00000 -1.00000
vn 0.00000 0.00000 -1.00000
vn 0.00000 0.00000 -1.00000
vn 0.00000 0.00000 -1.00000
vn 0.00000 0.00000 -1.00000
vn 0.00000 0.00000 -1.00000
vn 0.00000 0.00000 -1.00000
vn 0.00000 0.00000 -1.00000
vn 0.00000 0.00000 -1.00000
vn 0.00000 0.00000 -1.00000
vn 0.00000 0.00000 -1.00000
vn 1.00000 0.00000 0.00000
vn 1.00000 0.00000 0.00000
vn 1.00000 0.00000 0.00000
vn 1.00000 0.00000 0.00000
vn 1.00000 0.00000 0.00000
vn 1.00000 0.00000 0.00000
vn 1.00000 0.00000 0.00000
vn 1.00000 0.00000 0.00000
vn 1.00000 0.00000 0.00000
vn 1.00000 0.00000 0.00000
vn 1.00000 0.00000 0.00000
vn 1.00000 0.00000 0.00000
vn 1.00000 0.00000 0.00000
vn 1.00000 0.00000 0.00000
vn 1.00000 0.00000 0.00000
vn 1.00000 0.00000 0.00000
vn 0.00000 1.00000 0.00000
vn 0.00000 1.00000 0.00000
vn 0.00000 1.00000 0.00000
vn 0.00000 1.00000 0.00000
vn 0.00000 1.00000 0.00000
vn 0.00000 1.00000 0.00000
vn 0.00000 1.00000 0.00000
vn 0.00000 1.00000 0.00000
vn 0.00000 1.00000 0.00000
vn 0.00000 1.00000 0.00000
vn 0.00000 1.00000 0.00000
vn 0.00000 1.00000 0.00000
vn 0.00000 1.00000 0.00000
vn 0.00000 1.00000 0.00000
vn 0.00000 1.00000 0.00000
vn 0.00000 1.00000 0.00000
vn 1.00000 0.00000 0.00000
vn 0.12172 0.00000 -0.99256
vn 0.12172 0.00000 -0.99256
vn 1.00000 0.00000 0.00000
vn 0.12172 0.00000 -0.99256
vn 0.02894 0.00000 -0.99958
vn 0.02894 0.00000 -0.99958
vn 0.12172 0.00000 -0.99256
vn 0.02894 0.00000 -0.99958
vn -0.02894 0.00000 -0.99958
vn -0.02894 0.00000 -0.99958
vn 0.02894 0.00000 -0.99958
vn -0.02894 0.00000 -0.99958
vn -0.12172 0.00000 -0.99256
vn -0.12172 0.00000 -0.99256
vn -0.02894 0.00000 -0.99958
vn -0.12172 0.00000 -0.99256
vn -1.00000 0.00000 -0.00000
vn -1.00000 0.00000 -0.00000
vn -0.12172 0.00000 -0.99256
vn -1.00000 0.00000 -0.00000
vn -0.12172 -0.00000 0.99256
vn -0.12172 -0.00000 0.99256
vn -1.00000 0.00000 -0.00000
vn -0.12172 -0.00000 0.99256
vn -0.02894 -0.00000 0.99958
vn -0.02894 -0.00000 0.99958
vn -0.12172 -0.00000 0.99256
vn -0.02894 -0.00000 0.99958
vn 0.02894 -0.00000 0.99958
vn 0.02894 -0.00000 0.99958
vn -0.02894 -0.00000 0.99958
vn 0.02894 -0.00000 0.99958
vn 0.12172 -0.00000 0.99256
vn 0.12172 -0.00000 0.99256
vn 0.02894 -0.00000 0.99958
vn 0.12172 -0.00000 0.99256
vn 1.00000 0.00000 0.00000
vn 1.00000 0.00000 0.00000
vn 0.12172 -0.00000 0.99256
vn 0.00000 -1.00000 -0.00000
vn 0.00000 -1.00000 -0.00000
vn 0.00000 -1.00000 -0.00000
vn 0.00000 -1.00000 -0.00000
vn 0.00000 -1.00000 -0.00000
vn 0.00000 -1.00000 -0.00000
vn 0.00000 -1.00000 -0.00000
vn 0.00000 -1.00000 -0.00000
vn 0.00000 -1.00000 -0.00000
vn 0.00000 -1.00000 -0.00000
vn 0.00000 -1.00000 -0.00000
vn 0.00000 -1.00000 -0.00000
vn 0.00000 -1.00000 -0.00000
vn 0.00000 -1.00000 -0.00000
vn 0.00000 -1.00000 -0.00000
vn 0.00000 -1.00000 -0.00000
vn 0.00000 -1.00000 -0.00000
vn 0.00000 -1.00000 -0.00000
vn 0.00000 -1.00000 -0.00000
vn 0.00000 -1.00000 -0.00000
vn 0.00000 -1.00000 -0.00000
vn 0.00000 -1.00000 -0.00000
vn 0.00000 -1.00000 -0.00000
vn 0.00000 -1.00000 -0.00000
vn 0.00000 -1.00000 -0.00000
vn 0.00000 -1.00000 -0.00000
vn 0.00000 -1.00000 -0.00000
vn 0.00000 -1.00000 -0.00000
vn 0.00000 -1.00000 -0.00000
vn 0.00000 -1.00000 -0.00000
vn 0.00000 1.00000 0.00000
vn 0.00000 1.00000 0.00000
vn 0.00000 1.00000 0.00000
vn 0.00000 1.00000 0.00000
vn 0.00000 1.00000 0.00000
vn 0.00000 1.00000 0.00000
vn 0.00000 1.00000 0.00000
vn 0.00000 1.00000 0.00000
vn 0.00000 1.00000 0.00000
vn 0.00000 1.00000 0.00000
vn 0.00000 1.00000 0.00000
vn 0.00000 1.00000 0.00000
vn 0.00000 1.00000 0.00000
vn 0.00000 1.00000 0.00000
vn 0.00000 1.00000 0.00000
vn 0.00000 1.00000 0.00000
vn 0.00000 1.00000 0.00000
vn 0.00000 1.00000 0.00000
vn 0.00000 1.00000 0.00000
vn 0.00000 1.00000 0.00000
vn 0.00000 1.00000 0.00000
vn 0.00000 1.00000 0.00000
vn 0.00000 1.00000 0.00000
vn 0.00000 1.00000 0.00000
vn 0.00000 1.00000 0.00000
vn 0.00000 1.00000 0.00000
vn 0.00000 1.00000 0.00000
vn 0.00000 1.00000 0.00000
vn 0.00000 1.00000 0.00000
vn 0.00000 1.00000 0.00000
vn 0.00000 -1.00000 -0.00000
vn 0.00000 -1.00000 -0.00000
vn 0.00000 -1.00000 -0.00000
vn 0.00000 -1.00000 -0.00000
vn 0.00000 -1.00000 -0.00000
vn 0.00000 -1.00000 -0.00000
vn 0.00000 -1.00000 -0.00000
vn 0.00000 -1.00000 -0.00000
vn 0.00000 -1.00000 -0.00000
vn 0.00000 -1.00000 -0.00000
vn 0.00000 -1.00000 -0.00000
vn 0.00000 -1.00000 -0.00000
vn 0.00000 -1.00000 -0.00000
vn 0.00000 -1.00000 -0.00000
vn 0.00000 -1.00000 -0.00000
vn 0.00000 -1.00000 -0.00000
vn -1.00000 0.00000 0.00000
vn -1.00000 0.00000 0.00000
vn -1.00000 0.00000 0.00000
vn -1.00000 0.00000 0.00000
vn -1.00000 0.00000 0.00000
vn -1.00000 0.00000 0.00000
vn -1.00000 0.00000 0.00000
vn -1.00000 0.00000 0.00000
vn -1.00000 0.00000 0.00000
vn -1.00000 0.00000 0.00000
vn -1.00000 0.00000 0.00000
vn -1.00000 0.00000 0.00000
vn -1.00000 0.00000 0.00000
vn -1.00000 0.00000 0.00000
vn -1.00000 0.00000 0.00000
vn -1.00000 0.00000 0.00000
vn 0.00000 0.00000 -1.00000
vn 0.00000 0.00000 -1.00000
vn 0.00000 0.00000 -1.00000
vn 0.00000 0.00000 -1.00000
vn 0.00000 0.00000 -1.00000
vn 0.00000 0.00000 -1.00000
vn 0.00000 0.00000 -1.00000
vn 0.00000 0.00000 -1.00000
vn 0.00000 0.00000 -1.00000
vn 0.00000 0.00000 -1.00000
vn 0.00000 0.00000 -1.00000
vn 0.00000 0.00000 -1.00000
vn 0.00000 0.00000 -1.00000
vn 0.00000 0.00000 -1.00000
vn 0.00000 0.00000 -1.00000
vn 0.00000 0.00000 -1.00000
vn 0.00000 -0.00000 1.00000
vn 0.00000 -0.00000 1.00000
vn 0.00000 -0.00000 1.00000
vn 0.00000 -0.00000 1.00000
vn 0.00000 -0.00000 1.00000
vn 0.00000 -0.00000 1.00000
vn 0.00000 -0.00000 1.00000
vn 0.00000 -0.00000 1.00000
vn 0.00000 -0.00000 1.00000
vn 0.00000 -0.00000 1.00000
vn 0.00000 -0.00000 1.00000
vn 0.00000 -0.00000 1.00000
vn 0.00000 -0.00000 1.00000
vn 0.00000 -0.00000 1.00000
vn 0.00000 -0.00000 1.00000
vn 0.00000 -0.00000 1.00000
vn 1.00000 0.00000 0.00000
vn 1.00000 0.00000 0.00000
vn 1.00000 0.00000 0.00000
vn 1.00000 0.00000 0.00000
vn 1.00000 0.00000 0.00000
vn 1.00000 0.00000 0.00000
vn 1.00000 0.00000 0.00000
vn 1.00000 0.00000 0.00000
vn 1.00000 0.00000 0.00000
vn 1.00000 0.00000 0.00000
vn 1.00000 0.00000 0.00000
vn 1.00000 0.00000 0.00000
vn 1.00000 0.00000 0.00000
vn 1.00000 0.00000 0.00000
vn 1.00000 0.00000 0.00000
vn 1.00000 0.00000 0.00000
vn 0.00000 1.00000 0.00000
vn 0.00000 1.00000 0.00000
vn 0.00000 1.00000 0.00000
vn 0.00000 1.00000 0.00000
vn 0.00000 1.00000 0.00000
vn 0.00000 1.00000 0.00000
vn 0.00000 1.00000 0.00000
vn 0.00000 1.00000 0.00000
vn 0.00000 1.00000 0.00000
vn 0.00000 1.00000 0.00000
vn 0.00000 1.00000 0.00000
vn 0.00000 1.00000 0.00000
vn 0.00000 1.00000 0.00000
vn 0.00000 1.00000 0.00000
vn 0.00000 1.00000 0.00000
vn 0.00000 1.00000 0.00000
f 2//2 3//3 4//4 1//1 
f 5//6 6//7 3//8 2//5 
f 7//10 8//11 6//12 5//9 
f 9//14 10//15 8//16 7//13 
f 11//18 12//19 10//20 9//17 
f 13//22 14//23 12//24 11//21 
f 15//26 16//27 14//28 13//25 
f 17//30 18//31 16//32 15//29 
f 19//34 20//35 18//36 17//33 
f 1//38 4//39 20//40 19//37 
f 2//41 1//42 21//43 
f 5//44 2//45 21//46 
f 7//47 5//48 21//49 
f 9//50 7//51 21//52 
f 11//53 9//54 21//55 
f 13//56 11//57 21//58 
f 15//59 13//60 21//61 
f 17//62 15//63 21//64 
f 19//65 17//66 21//67 
f 1//68 19//69 21//70 
f 22//71 4//72 3//73 
f 22//74 3//75 6//76 
f 22//77 6//78 8//79 
f 22//80 8//81 10//82 
f 22//83 10//84 12//85 
f 22//86 12//87 14//88 
f 22//89 14//90 16//91 
f 22//92 16//93 18//94 
f 22//95 18//96 20//97 
f 22//98 20//99 4//100 
f 25//103 23//101 26//104 24//102 
f 24//107 26//105 28//108 27//106 
f 30//111 25//109 24//112 29//110 
f 29//115 24//113 27//116 31//114 
f 33//119 31//117 27//120 32//118 
f 32//123 27//121 28//124 34//122 
f 36//127 33//125 32//128 35//126 
f 35//131 32//129 34//132 37//130 
f 34//135 28//133 26//136 38//134 
f 38//139 26//137 23//140 39//138 
f 37//143 34//141 38//144 40//142 
f 40//147 38//145 39//148 41//146 
f 43//151 30//149 29//152 42//150 
f 42//155 29//153 31//156 33//154 
f 45//159 43//157 42//160 44//158 
f 44//163 42//161 33//164 36//162 
f 39//167 23//165 25//168 46//166 
f 46//171 25//169 30//172 43//170 
f 41//175 39//173 46//176 47//174 
f 47//179 46//177 43//180 45//178 
f 35//183 37//181 40//184 48//182 
f 48//187 40//185 41//188 47//186 
f 36//191 35//189 48//192 44//190 
f 44//195 48//193 47//196 45//194 
f 50//198 51//199 52//200 49//197 
f 53//202 54//203 51//204 50//201 
f 55//206 56//207 54//208 53//205 
f 57//210 58//211 56//212 55//209 
f 59//214 60//215 58//216 57//213 
f 61//218 62//219 60//220 59//217 
f 63//222 64//223 62//224 61//221 
f 65//226 66//227 64//228 63//225 
f 67//230 68//231 66//232 65//229 
f 49//234 52//235 68//236 67//233 
f 50//237 49//238 69//239 
f 53//240 50//241 69//242 
f 55//243 53//244 69//245 
f 57//246 55//247 69//248 
f 59//249 57//250 69//251 
f 61//252 59//253 69//254 
f 63//255 61//256 69//257 
f 65//258 63//259 69//260 
f 67//261 65//262 69//263 
f 49//264 67//265 69//266 
f 70//267 52//268 51//269 
f 70//270 51//271 54//272 
f 70//273 54//274 56//275 
f 70//276 56//277 58//278 
f 70//279 58//280 60//281 
f 70//282 60//283 62//284 
f 70//285 62//286 64//287 
f 70//288 64//289 66//290 
f 70//291 66//292 68//293 
f 70//294 68//295 52//296 
f 73//299 71//297 74//300 72//298 
f 72//303 74//301 76//304 75//302 
f 78//307 73//305 72//308 77//306 
f 77//311 72//309 75//312 79//310 
f 81//315 79//313 75//316 80//314 
f 80//319 75//317 76//320 82//318 
f 84//323 81//321 80//324 83//322 
f 83//327 80//325 82//328 85//326 
f 82//331 76//329 74//332 86//330 
f 86//335 74//333 71//336 87//334 
f 85//339 82//337 86//340 88//338 
f 88//343 86//341 87//344 89//342 
f 91//347 78//345 77//348 90//346 
f 90//351 77//349 79//352 81//350 
f 93//355 91//353 90//356 92//354 
f 92//359 90//357 81//360 84//358 
f 87//363 71//361 73//364 94//362 
f 94//367 73//365 78//368 91//366 
f 89//371 87//369 94//372 95//370 
f 95//375 94//373 91//376 93//374 
f 83//379 85//377 88//380 96//378 
f 96//383 88//381 89//384 95//382 
f 84//387 83//385 96//388 92//386 
f 92//391 96//389 95//392 93//390 
f 98//394 99//395 100//396 97//393 
f 101//398 102//399 99//400 98//397 
f 103//402 104//403 102//404 101//401 
f 105//406 106//407 104//408 103//405 
f 107//410 108//411 106//412 105//409 
f 109//414 110//415 108//416 107//413 
f 111//418 112//419 110//420 109//417 
f 113//422 114//423 112//424 111//421 
f 115//426 116//427 114//428 113//425 
f 97//430 100//431 116//432 115//429 
f 98//433 97//434 117//435 
f 101//436 98//437 117//438 
f 103//439 101//440 117//441 
f 105//442 103//443 117//444 
f 107//445 105//446 117//447 
f 109//448 107//449 117//450 
f 111//451 109//452 117//453 
f 113//454 111//455 117//456 
f 115//457 113//458 117//459 
f 97//460 115//461 117//462 
f 118//463 100//464 99//465 
f 118//466 99//467 102//468 
f 118//469 102//470 104//471 
f 118//472 104//473 106//474 
f 118//475 106//476 108//477 
f 118//478 108//479 110//480 
f 118//481 110//482 112//483 
f 118//484 112//485 114//486 
f 118//487 114//488 116//489 
f 118//490 116//491 100//492 
f 120//494 122//496 121//495 119//493 
f 123//498 124//500 122//499 120//497 
f 126//502 120//504 119//503 125//501 
f 127//506 123//508 120//507 126//505 
f 129//510 123//512 127//511 128//509 
f 130//514 124//516 123//515 129//513 
f 132//518 129//520 128//519 131//517 
f 133//522 130//524 129//523 132//521 
f 134//526 122//528 124//527 130//525 
f 135//530 121//532 122//531 134//529 
f 136//534 134//536 130//535 133//533 
f 137//538 135//540 134//539 136//537 
f 139//542 126//544 125//543 138//541 
f 128//546 127//548 126//547 139//545 
f 141//550 139//552 138//551 140//549 
f 131//554 128//556 139//555 141//553 
f 142//558 119//560 121//559 135//557 
f 138//562 125//564 119//563 142//561 
f 143//566 142//568 135//567 137//565 
f 140//570 138//572 142//571 143//569 
f 144//574 136//576 133//575 132//573 
f 143//578 137//580 136//579 144//577 
f 141//582 144//584 132//583 131//581 
f 140//586 143//588 144//587 141//585 
